<svg width="52" height="56" viewBox="0 0 52 56" fill="none" xmlns="http://www.w3.org/2000/svg">
<rect width="14" height="56" fill="#D08187"/>
<path d="M27 3C13.1929 3 2 14.1929 2 28C2 41.8071 13.1929 53 27 53C40.8071 53 52 41.8071 52 28C51.9844 14.1994 40.8006 3.01561 27 3ZM27 51.3333C14.1134 51.3333 3.66667 40.8866 3.66667 28C3.66667 15.1134 14.1134 4.66667 27 4.66667C39.8866 4.66667 50.3333 15.1134 50.3333 28C50.3186 40.8806 39.8806 51.3186 27 51.3333Z" fill="#2B2B2B"/>
<path d="M27 6.33334C15.0338 6.33334 5.33334 16.0338 5.33334 28C5.33334 39.9662 15.0338 49.6667 27 49.6667C38.9662 49.6667 48.6667 39.9662 48.6667 28C48.6529 16.0396 38.9605 6.34712 27 6.33334ZM27 48C15.9543 48 7.00001 39.0457 7.00001 28C7.00001 16.9543 15.9543 8.00001 27 8.00001C38.0457 8.00001 47 16.9543 47 28C46.9872 39.0404 38.0404 47.9872 27 48Z" fill="#2B2B2B"/>
<path d="M27 20.5C29.7614 20.5 32 18.2614 32 15.5C32 12.7386 29.7614 10.5 27 10.5C24.2386 10.5 22 12.7386 22 15.5C22.0028 18.2603 24.2397 20.4972 27 20.5ZM27 12.1667C28.841 12.1667 30.3333 13.6591 30.3333 15.5C30.3333 17.341 28.841 18.8333 27 18.8333C25.1591 18.8333 23.6667 17.341 23.6667 15.5C23.6667 13.6591 25.1591 12.1667 27 12.1667Z" fill="#2B2B2B"/>
<path d="M38.6058 21.34H38.5925L29.8425 22.1258C29.5442 22.1531 29.2456 22.1667 28.9467 22.1667H25.0533C24.755 22.1667 24.4569 22.1533 24.1592 22.1267L15.3942 21.34C14.0176 21.2318 12.814 22.2601 12.7058 23.6367C12.5977 25.0132 13.6259 26.2168 15.0025 26.325L22.075 26.9667C22.5041 27.0054 22.8329 27.365 22.8333 27.7958V29.7125C22.8336 30.1292 22.7556 30.5422 22.6033 30.93L18.5933 41.1425C18.0344 42.4054 18.605 43.8823 19.8679 44.4413C21.1308 45.0002 22.6077 44.4296 23.1667 43.1667L26.9883 33.8225L30.8458 43.1917C31.4211 44.4228 32.8744 44.969 34.1181 44.4215C35.3619 43.8739 35.9404 42.4332 35.4208 41.1775L31.3967 30.9275C31.2448 30.5401 31.1668 30.1277 31.1667 29.7117V27.795C31.1671 27.3641 31.4959 27.0046 31.925 26.9658L38.9858 26.325C40.3626 26.2201 41.3937 25.0189 41.2888 23.6421C41.1838 22.2653 39.9826 21.2342 38.6058 21.3392V21.34ZM38.8467 24.6667L31.7742 25.3083C30.4843 25.4194 29.4952 26.5012 29.5 27.7958V29.7125C29.4997 30.338 29.617 30.9579 29.8458 31.54L33.8842 41.8225C34.0805 42.2388 33.9021 42.7354 33.4858 42.9317C33.0696 43.128 32.573 42.9496 32.3767 42.5333L28.5275 33.1892C28.2722 32.5707 27.6691 32.1671 27 32.1671C26.3309 32.1671 25.7278 32.5707 25.4725 33.1892L21.6342 42.5083C21.5148 42.7919 21.2489 42.9867 20.9425 43.0149C20.6361 43.0432 20.3391 42.9003 20.17 42.6433C20.0008 42.3862 19.987 42.0569 20.1342 41.7867L24.1583 31.5367C24.3856 30.9551 24.5015 30.336 24.5 29.7117V27.795C24.5056 26.4997 23.5163 25.4169 22.2258 25.3058L15.1417 24.6667C14.6814 24.6342 14.3346 24.2348 14.3671 23.7746C14.3995 23.3143 14.7989 22.9676 15.2592 23L24.0092 23.7858C24.3558 23.8169 24.7033 23.8325 25.0517 23.8325H28.945C29.2933 23.8325 29.6408 23.8169 29.9875 23.7858L38.7333 23C38.9536 22.9826 39.1717 23.0538 39.3391 23.198C39.5065 23.3421 39.6095 23.5471 39.625 23.7675C39.6431 23.9904 39.5709 24.2113 39.4245 24.3804C39.2781 24.5495 39.0699 24.6526 38.8467 24.6667Z" fill="#2B2B2B"/>
</svg>
