<svg width="52" height="56" viewBox="0 0 52 56" fill="none" xmlns="http://www.w3.org/2000/svg">
<rect width="14" height="56" fill="#D08187"/>
<path d="M51.2188 3.78125H12.1562V11.5938C9.14062 11.5938 6.6875 14.0469 6.6875 17.0625C6.6875 18.8102 7.51406 20.3641 8.79375 21.3664C5.3125 22.4648 2.78125 25.7234 2.78125 29.5625V35.0312C2.78125 36.7547 4.18281 38.1562 5.90625 38.1562H6.6875V49.0938C6.6875 50.8172 8.08906 52.2188 9.8125 52.2188C10.75 52.2188 11.5828 51.7953 12.1562 51.1391C12.7297 51.7953 13.5625 52.2188 14.5 52.2188C16.2234 52.2188 17.625 50.8172 17.625 49.0938V35.0312H21.5312V46.75C21.5312 48.0422 22.5828 49.0938 23.875 49.0938H42.625C43.9172 49.0938 44.9688 48.0422 44.9688 46.75V35.0312H51.2188V3.78125ZM49.6562 5.34375V10.0312H13.7188V5.34375H49.6562ZM8.25 17.0625C8.25 14.9086 10.0023 13.1562 12.1562 13.1562C14.3102 13.1562 16.0625 14.9086 16.0625 17.0625C16.0625 19.2164 14.3102 20.9688 12.1562 20.9688C10.0023 20.9688 8.25 19.2164 8.25 17.0625ZM12.9102 28.4852L12.1562 29.2391L11.4023 28.4852L11.8984 22.5312H12.1562H12.4141L12.9102 28.4852ZM16.0625 29.7687V49.0938C16.0625 49.9555 15.3617 50.6562 14.5 50.6562C13.6383 50.6562 12.9375 49.9555 12.9375 49.0938V35.0312H11.375V49.0938C11.375 49.9555 10.6742 50.6562 9.8125 50.6562C8.95078 50.6562 8.25 49.9555 8.25 49.0938V28H6.6875V36.5938H5.90625C5.04453 36.5938 4.34375 35.893 4.34375 35.0312V29.5625C4.34375 26.0438 6.94453 23.1289 10.3234 22.6187L9.78516 29.0773L12.1562 31.4484L14.5273 29.0773L13.982 22.5312H16.2984C17.3109 22.5312 18.3016 22.2508 19.1641 21.7195L27.75 16.4359C27.9148 16.3344 28.1047 16.2812 28.2984 16.2812C28.8742 16.2812 29.3438 16.7508 29.3438 17.3266V17.6313C29.3438 17.9875 29.1648 18.3156 28.8664 18.5094L18.5609 25.1781C16.9961 26.1898 16.0625 27.9062 16.0625 29.7687ZM43.4062 46.75C43.4062 47.1805 43.0555 47.5312 42.625 47.5312H23.875C23.4445 47.5312 23.0938 47.1805 23.0938 46.75V32.6875C23.0938 32.257 23.4445 31.9062 23.875 31.9062H42.625C43.0555 31.9062 43.4062 32.257 43.4062 32.6875V46.75ZM44.9688 33.4688V32.6875C44.9688 31.3953 43.9172 30.3438 42.625 30.3438H23.875C22.5828 30.3438 21.5312 31.3953 21.5312 32.6875V33.4688H17.625V29.7687C17.625 28.4383 18.2922 27.2125 19.4094 26.4891L29.7148 19.8211C30.0961 19.575 30.3953 19.2391 30.6 18.8531L32.0227 20.5602C31.8148 20.9102 31.6875 21.3141 31.6875 21.75C31.6875 23.0422 32.7391 24.0938 34.0312 24.0938C34.5961 24.0938 35.1086 23.8844 35.5133 23.5508L39.5469 25.9711C39.5164 26.1219 39.5 26.2773 39.5 26.4375C39.5 27.7297 40.5516 28.7812 41.8438 28.7812C43.1359 28.7812 44.1875 27.7297 44.1875 26.4375C44.1875 25.707 43.8445 25.0609 43.3187 24.6313L45.743 17.843C45.7453 17.843 45.7477 17.8438 45.75 17.8438C47.0422 17.8438 48.0938 16.7922 48.0938 15.5C48.0938 14.2078 47.0422 13.1562 45.75 13.1562C44.4578 13.1562 43.4062 14.2078 43.4062 15.5C43.4062 16.2305 43.7492 16.8766 44.275 17.3063L41.8508 24.0945C41.8484 24.0945 41.8461 24.0938 41.8438 24.0938C41.2789 24.0938 40.7664 24.3031 40.3617 24.6367L36.3281 22.2164C36.3586 22.0656 36.375 21.9102 36.375 21.75C36.375 20.4578 35.3234 19.4062 34.0312 19.4062C33.7461 19.4062 33.4758 19.4648 33.2219 19.5586L30.8102 16.6648C30.5156 15.5484 29.5063 14.7188 28.2984 14.7188C27.8156 14.7188 27.343 14.8523 26.932 15.1055L18.3461 20.3891C17.7297 20.7688 17.0219 20.9688 16.2984 20.9688H15.9766C16.9922 19.975 17.625 18.5922 17.625 17.0625C17.625 14.5898 15.975 12.4984 13.7188 11.8242V11.5938H49.6562V33.4688H44.9688ZM34.0312 20.9688C34.4617 20.9688 34.8125 21.3195 34.8125 21.75C34.8125 22.1805 34.4617 22.5312 34.0312 22.5312C33.6008 22.5312 33.25 22.1805 33.25 21.75C33.25 21.3195 33.6008 20.9688 34.0312 20.9688ZM41.8438 25.6562C42.2742 25.6562 42.625 26.007 42.625 26.4375C42.625 26.868 42.2742 27.2188 41.8438 27.2188C41.4133 27.2188 41.0625 26.868 41.0625 26.4375C41.0625 26.007 41.4133 25.6562 41.8438 25.6562ZM44.9688 15.5C44.9688 15.0695 45.3195 14.7188 45.75 14.7188C46.1805 14.7188 46.5312 15.0695 46.5312 15.5C46.5312 15.9305 46.1805 16.2812 45.75 16.2812C45.3195 16.2812 44.9688 15.9305 44.9688 15.5Z" fill="#2B2B2B"/>
<path d="M15.2812 6.90625H16.8438V8.46875H15.2812V6.90625Z" fill="#2B2B2B"/>
<path d="M18.4062 6.90625H19.9688V8.46875H18.4062V6.90625Z" fill="#2B2B2B"/>
<path d="M21.5312 6.90625H23.0938V8.46875H21.5312V6.90625Z" fill="#2B2B2B"/>
<path d="M37.1562 44.4062H35.5938V38.1562H30.9062V44.4062H29.3438V36.5938H24.6562V45.9688H41.8438V33.4688H37.1562V44.4062ZM27.7812 44.4062H26.2188V38.1562H27.7812V44.4062ZM32.4688 39.7188H34.0312V44.4062H32.4688V39.7188ZM38.7188 35.0312H40.2812V44.4062H38.7188V35.0312Z" fill="#2B2B2B"/>
<path d="M46.5312 30.3438H48.0938V31.9062H46.5312V30.3438Z" fill="#2B2B2B"/>
<path d="M46.5312 27.2188H48.0938V28.7812H46.5312V27.2188Z" fill="#2B2B2B"/>
<path d="M46.5312 24.0938H48.0938V25.6562H46.5312V24.0938Z" fill="#2B2B2B"/>
</svg>
