<svg width="13" height="12" viewBox="0 0 13 12" fill="none" xmlns="http://www.w3.org/2000/svg">
<g clip-path="url(#clip0_129_113)">
<path d="M4.59 4.59998L3.75 5.43998L6.75 8.43998L12.75 2.43998L11.91 1.59998L6.75 6.75998L4.59 4.59998Z" fill="#27BF49"/>
<path d="M6.15 10.6C3.81 10.6 1.95 8.74 1.95 6.4C1.95 4.06 3.81 2.2 6.15 2.2C6.87 2.2 7.59 2.38 8.25 2.74L8.85 1.72C8.01 1.24 7.11 1 6.15 1C3.15 1 0.75 3.4 0.75 6.4C0.75 9.4 3.15 11.8 6.15 11.8C9.15 11.8 11.55 9.4 11.55 6.4H10.35C10.35 8.74 8.49 10.6 6.15 10.6Z" fill="#27BF49"/>
</g>
<defs>
<clipPath id="clip0_129_113">
<rect width="12" height="12" fill="white" transform="translate(0.5)"/>
</clipPath>
</defs>
</svg>
