<svg width="146" height="7" viewBox="0 0 146 7" fill="none" xmlns="http://www.w3.org/2000/svg">
<path d="M145.965 4.72897C145.18 4.67797 144.342 4.70431 143.558 4.65331C127.06 3.78837 110.565 3.25844 93.9928 3.34705C68.6879 3.36432 43.3314 3.79395 18.1469 5.66661C13.4451 6.03061 8.82478 6.44608 4.20451 6.86157C3.44804 6.93942 2.82657 6.99139 2.12365 6.99184C1.15072 7.04406 0.338451 6.86423 0.0617263 5.91089C-0.214997 4.95756 0.483447 4.28705 1.26558 4.00304C2.28983 3.53848 3.39553 3.12539 4.55702 2.96997C7.825 2.4781 11.228 1.96037 14.4983 1.80352C51.5768 -0.334969 88.5035 -0.901343 125.534 1.93393C131.891 2.39346 138.196 3.26535 144.526 3.93107C145.041 4.0338 145.555 4.13654 145.988 4.18778C146.016 4.31662 145.99 4.52279 145.965 4.72897Z" fill="#D08187"/>
</svg>
