<svg width="252" height="426" viewBox="0 0 252 426" fill="none" xmlns="http://www.w3.org/2000/svg">
<path fill-rule="evenodd" clip-rule="evenodd" d="M86.0528 177.3C79.8959 177.108 74.55 176.753 68.2729 176.619C56.6998 176.373 43.2626 176.988 33.8666 176.187C23.911 175.339 15.1103 173.752 18.8986 172.411C22.8485 171.013 41.0414 171.015 51.1066 170.086C58.8388 169.371 62.343 168.232 70.7443 167.621C81.271 166.856 93.8502 165.552 105.182 166.154C117.136 166.788 113.424 168.903 119.649 170.217C124.045 171.145 132.853 171.703 136.138 172.688C139.969 173.836 144.905 175.184 139.844 176.27C134.768 177.359 122.288 177.763 111.528 177.97C102.754 178.138 94.6297 177.568 86.0528 177.3Z" fill="#2B2B2B"/>
<path fill-rule="evenodd" clip-rule="evenodd" d="M81.169 124.364C91.0123 124.486 100.474 124.588 109.517 125.047C120.791 125.619 134.358 126.054 139.578 127.326C144.919 128.627 140.377 130.161 136.038 131.511C131.833 132.818 125.378 134.034 115.406 134.842C105.496 135.644 93.2041 136.159 81.169 135.955C69.8587 135.764 63.4371 134.462 53.6226 133.794C42.3239 133.026 24.8195 133.131 19.4928 131.762C14.2158 130.406 24.2252 128.932 29.4056 127.571C34.0661 126.347 37.6505 124.924 47.9535 124.285C57.9217 123.668 69.8836 124.224 81.169 124.364Z" fill="#2B2B2B"/>
<path fill-rule="evenodd" clip-rule="evenodd" d="M55.9472 82.6998C62.1041 82.892 67.45 83.2467 73.7271 83.3806C85.3002 83.6274 98.7374 83.012 108.133 83.8129C118.089 84.6614 126.89 86.248 123.101 87.5888C119.151 88.9868 100.959 88.9846 90.8934 89.9145C83.1612 90.6288 79.657 91.7679 71.2557 92.3787C60.729 93.1441 48.1498 94.4476 36.8176 93.8461C24.864 93.2115 28.5757 91.0966 22.3505 89.7826C17.9547 88.8548 9.1474 88.2966 5.86225 87.3121C2.03071 86.1637 -2.905 84.8163 2.15584 83.7302C7.23194 82.6408 19.7122 82.2366 30.472 82.0305C39.2458 81.8624 47.3703 82.4321 55.9472 82.6998Z" fill="#2B2B2B"/>
<circle cx="265" cy="213" r="213" fill="#D08187"/>
<mask id="mask0_110_75" style="mask-type:alpha" maskUnits="userSpaceOnUse" x="52" y="0" width="426" height="426">
<circle cx="265" cy="213" r="213" fill="#DFB8BC"/>
</mask>
<g mask="url(#mask0_110_75)">
<path fill-rule="evenodd" clip-rule="evenodd" d="M86.0528 177.3C79.8959 177.108 74.55 176.753 68.2729 176.619C56.6998 176.373 43.2626 176.988 33.8666 176.187C23.911 175.339 15.1103 173.752 18.8986 172.411C22.8485 171.013 41.0414 171.015 51.1066 170.086C58.8388 169.371 62.343 168.232 70.7443 167.621C81.271 166.856 93.8502 165.552 105.182 166.154C117.136 166.788 113.424 168.903 119.649 170.217C124.045 171.145 132.853 171.703 136.138 172.688C139.969 173.836 144.905 175.184 139.844 176.27C134.768 177.359 122.288 177.763 111.528 177.97C102.754 178.138 94.6297 177.568 86.0528 177.3Z" fill="#EEF1F3"/>
<path fill-rule="evenodd" clip-rule="evenodd" d="M81.169 124.364C91.0123 124.486 100.474 124.588 109.517 125.047C120.791 125.619 134.358 126.054 139.578 127.326C144.919 128.627 140.377 130.161 136.038 131.511C131.833 132.818 125.378 134.034 115.406 134.842C105.496 135.644 93.2041 136.159 81.169 135.955C69.8587 135.764 63.4371 134.462 53.6226 133.794C42.3239 133.026 24.8195 133.131 19.4928 131.762C14.2158 130.406 24.2252 128.932 29.4056 127.571C34.0661 126.347 37.6505 124.924 47.9535 124.285C57.9217 123.668 69.8836 124.224 81.169 124.364Z" fill="#EEF1F3"/>
<path fill-rule="evenodd" clip-rule="evenodd" d="M55.9472 82.6998C62.1041 82.892 67.45 83.2467 73.7271 83.3806C85.3002 83.6274 98.7374 83.012 108.133 83.8129C118.089 84.6614 126.89 86.248 123.101 87.5888C119.151 88.9868 100.959 88.9846 90.8934 89.9145C83.1612 90.6288 79.657 91.7679 71.2557 92.3787C60.729 93.1441 48.1498 94.4476 36.8176 93.8461C24.864 93.2115 28.5757 91.0966 22.3505 89.7826C17.9547 88.8548 9.1474 88.2966 5.86225 87.3121C2.03071 86.1637 -2.905 84.8163 2.15584 83.7302C7.23194 82.6408 19.7122 82.2366 30.472 82.0305C39.2458 81.8624 47.3703 82.4321 55.9472 82.6998Z" fill="#EEF1F3"/>
</g>
</svg>
