<svg width="836" height="220" viewBox="0 0 836 220" fill="none" xmlns="http://www.w3.org/2000/svg">
<circle cx="811" cy="110" r="25" fill="#2B2B2B"/>
<g clip-path="url(#clip0_3_29)">
<path d="M0.00158691 215V5H78.3016C98.4016 5 116.252 9.2 131.852 17.6C147.552 25.9 159.852 37.9 168.752 53.6C177.652 69.2 182.102 88 182.102 110C182.102 132 177.652 150.85 168.752 166.55C159.852 182.15 147.552 194.15 131.852 202.55C116.252 210.85 98.4016 215 78.3016 215H0.00158691ZM34.8016 183.8H78.3016C92.8016 183.8 104.902 180.8 114.602 174.8C124.302 168.7 131.602 160.15 136.502 149.15C141.502 138.05 144.002 125 144.002 110C144.002 95 141.502 82 136.502 71C131.602 59.9 124.302 51.35 114.602 45.35C104.902 39.25 92.8016 36.2 78.3016 36.2H34.8016V183.8Z" fill="#2B2B2B"/>
<circle cx="91" cy="110" r="25" fill="#81AED0"/>
</g>
<path d="M306.549 219.2C286.549 219.2 268.749 214.7 253.149 205.7C237.549 196.7 225.299 184.05 216.399 167.75C207.499 151.35 203.049 132.1 203.049 110C203.049 87.8999 207.499 68.6999 216.399 52.3999C225.299 35.9999 237.549 23.2999 253.149 14.2999C268.749 5.29993 286.549 0.799927 306.549 0.799927C326.549 0.799927 344.349 5.29993 359.949 14.2999C375.549 23.2999 387.799 35.9999 396.699 52.3999C405.599 68.6999 410.049 87.8999 410.049 110C410.049 132.1 405.599 151.35 396.699 167.75C387.799 184.05 375.549 196.7 359.949 205.7C344.349 214.7 326.549 219.2 306.549 219.2ZM306.549 185.45C321.249 185.45 333.549 182.2 343.449 175.7C353.349 169.1 360.799 160.1 365.799 148.7C370.799 137.3 373.299 124.4 373.299 110C373.299 95.5999 370.799 82.6999 365.799 71.2999C360.799 59.8999 353.349 50.9499 343.449 44.4499C333.549 37.8499 321.249 34.5499 306.549 34.5499C291.749 34.5499 279.399 37.8499 269.499 44.4499C259.599 50.9499 252.149 59.8999 247.149 71.2999C242.149 82.6999 239.649 95.5999 239.649 110C239.649 124.4 242.149 137.3 247.149 148.7C252.149 160.1 259.599 169.1 269.499 175.7C279.399 182.2 291.749 185.45 306.549 185.45Z" fill="#2B2B2B"/>
<g clip-path="url(#clip1_3_29)">
<path d="M518.041 216.7C498.341 216.7 482.041 212.85 469.141 205.15C456.341 197.45 446.791 186.6 440.491 172.6C434.191 158.5 431.041 141.9 431.041 122.8V2.5H465.841V113.65C465.841 123.55 466.541 132.75 467.941 141.25C469.341 149.75 471.841 157.2 475.441 163.6C479.141 170 484.441 175 491.341 178.6C498.241 182.1 507.141 183.85 518.041 183.85C529.041 183.85 537.941 182.1 544.741 178.6C551.641 175 556.941 170 560.641 163.6C564.341 157.2 566.841 149.75 568.141 141.25C569.541 132.65 570.241 123.45 570.241 113.65V2.5H605.041V122.8C605.041 141.9 601.891 158.5 595.591 172.6C589.291 186.6 579.691 197.45 566.791 205.15C553.991 212.85 537.741 216.7 518.041 216.7Z" fill="#81AED0"/>
</g>
<g clip-path="url(#clip2_3_29)">
<path d="M626.361 215L699.111 107.9L629.211 5H668.211L718.461 79.4L768.711 5H807.711L737.811 107.9L810.561 215H771.411L718.461 136.7L665.511 215H626.361Z" fill="#81AED0"/>
</g>
<defs>
<clipPath id="clip0_3_29">
<rect width="183" height="210" fill="white" transform="translate(0 5)"/>
</clipPath>
<clipPath id="clip1_3_29">
<rect width="175" height="215" fill="white" transform="translate(431 2.5)"/>
</clipPath>
<clipPath id="clip2_3_29">
<rect width="185" height="210" fill="white" transform="translate(626 5)"/>
</clipPath>
</defs>
</svg>
