<svg width="272" height="71" viewBox="0 0 272 71" fill="none" xmlns="http://www.w3.org/2000/svg">
<path d="M263.866 43.5682C268.358 43.5682 272 39.956 272 35.5001C272 31.0441 268.358 27.4319 263.866 27.4319C259.374 27.4319 255.732 31.0441 255.732 35.5001C255.732 39.956 259.374 43.5682 263.866 43.5682Z" fill="white"/>
<path d="M0.000518799 69.3863V1.61353H25.4761C32.0158 1.61353 37.8236 2.96898 42.8992 5.67989C48.0074 8.35853 52.0093 12.2313 54.905 17.2981C57.8007 22.3326 59.2485 28.3999 59.2485 35.4999C59.2485 42.5999 57.8007 48.6833 54.905 53.7501C52.0093 58.7847 48.0074 62.6574 42.8992 65.3683C37.8236 68.0469 32.0158 69.3863 25.4761 69.3863H0.000518799ZM11.323 59.3172H25.4761C30.1938 59.3172 34.1308 58.349 37.2868 56.4126C40.4428 54.444 42.8179 51.6847 44.4121 48.1347C46.0389 44.5524 46.8523 40.3408 46.8523 35.4999C46.8523 30.659 46.0389 26.4635 44.4121 22.9135C42.8179 19.3313 40.4428 16.5719 37.2868 14.6356C34.1308 12.6669 30.1938 11.6826 25.4761 11.6826H11.323V59.3172Z" fill="white"/>
<path d="M29.6077 43.568C34.0999 43.568 37.7416 39.9558 37.7416 35.4998C37.7416 31.0439 34.0999 27.4316 29.6077 27.4316C25.1154 27.4316 21.4737 31.0439 21.4737 35.4998C21.4737 39.9558 25.1154 43.568 29.6077 43.568Z" fill="white"/>
<path d="M99.7384 70.7417C93.2313 70.7417 87.4399 69.2894 82.3643 66.3849C77.2887 63.4804 73.303 59.3979 70.4073 54.1374C67.5116 48.8447 66.0638 42.6322 66.0638 35.4999C66.0638 28.3676 67.5116 22.1712 70.4073 16.9108C73.303 11.618 77.2887 7.51941 82.3643 4.61487C87.4399 1.71033 93.2313 0.258057 99.7384 0.258057C106.246 0.258057 112.037 1.71033 117.113 4.61487C122.188 7.51941 126.174 11.618 129.07 16.9108C131.965 22.1712 133.413 28.3676 133.413 35.4999C133.413 42.6322 131.965 48.8447 129.07 54.1374C126.174 59.3979 122.188 63.4804 117.113 66.3849C112.037 69.2894 106.246 70.7417 99.7384 70.7417ZM99.7384 59.8497C104.521 59.8497 108.523 58.8008 111.744 56.7031C114.965 54.5731 117.389 51.6685 119.016 47.9894C120.643 44.3104 121.456 40.1472 121.456 35.4999C121.456 30.8526 120.643 26.6894 119.016 23.0103C117.389 19.3312 114.965 16.4428 111.744 14.3451C108.523 12.2151 104.521 11.1501 99.7384 11.1501C94.9231 11.1501 90.9049 12.2151 87.6839 14.3451C84.4628 16.4428 82.0389 19.3312 80.4121 23.0103C78.7853 26.6894 77.9719 30.8526 77.9719 35.4999C77.9719 40.1472 78.7853 44.3104 80.4121 47.9894C82.0389 51.6685 84.4628 54.5731 87.6839 56.7031C90.9049 58.8008 94.9231 59.8497 99.7384 59.8497Z" fill="white"/>
<path d="M168.549 69.9351C162.14 69.9351 156.836 68.6926 152.639 66.2076C148.475 63.7226 145.367 60.221 143.318 55.7028C141.268 51.1523 140.243 45.7951 140.243 39.631V0.806885H151.565V36.678C151.565 39.873 151.793 42.8421 152.249 45.5853C152.704 48.3285 153.518 50.7328 154.689 52.7982C155.893 54.8637 157.617 56.4773 159.862 57.6392C162.107 58.7687 165.003 59.3335 168.549 59.3335C172.128 59.3335 175.024 58.7687 177.236 57.6392C179.481 56.4773 181.206 54.8637 182.409 52.7982C183.613 50.7328 184.427 48.3285 184.85 45.5853C185.305 42.8098 185.533 39.8407 185.533 36.678V0.806885H196.855V39.631C196.855 45.7951 195.831 51.1523 193.781 55.7028C191.731 60.221 188.608 63.7226 184.41 66.2076C180.246 68.6926 174.959 69.9351 168.549 69.9351Z" fill="#81AED0"/>
<path d="M203.792 69.3863L227.462 34.8222L204.719 1.61353H217.408L233.758 25.6244L250.107 1.61353H262.796L240.053 34.8222L263.723 69.3863H250.985L233.758 44.1167L216.53 69.3863H203.792Z" fill="#81AED0"/>
</svg>
