<svg width="163" height="290" viewBox="0 0 163 290" fill="none" xmlns="http://www.w3.org/2000/svg">
<path fill-rule="evenodd" clip-rule="evenodd" d="M103.819 169.303C108.01 169.434 111.649 169.675 115.922 169.766C123.801 169.934 132.948 169.515 139.344 170.06C146.122 170.638 152.113 171.718 149.534 172.631C146.845 173.583 134.46 173.581 127.608 174.214C122.344 174.7 119.959 175.476 114.24 175.892C107.074 176.413 98.5104 177.3 90.796 176.891C82.6586 176.459 85.1853 175.019 80.9475 174.124C77.9551 173.493 71.9595 173.113 69.7231 172.442C67.1148 171.661 63.7548 170.744 67.2 170.004C70.6555 169.263 79.1515 168.987 86.4763 168.847C92.449 168.733 97.9798 169.12 103.819 169.303Z" fill="#2B2B2B"/>
<path fill-rule="evenodd" clip-rule="evenodd" d="M107.143 205.339C100.442 205.256 94.0013 205.186 87.8453 204.874C80.1701 204.485 70.9344 204.189 67.3814 203.323C63.745 202.437 66.8376 201.393 69.7914 200.474C72.6537 199.584 77.0479 198.756 83.836 198.206C90.5824 197.66 98.9502 197.309 107.143 197.448C114.843 197.579 119.214 198.465 125.895 198.919C133.587 199.442 145.503 199.371 149.129 200.303C152.722 201.226 145.908 202.229 142.381 203.156C139.209 203.989 136.768 204.958 129.755 205.393C122.969 205.813 114.826 205.434 107.143 205.339Z" fill="#2B2B2B"/>
<path fill-rule="evenodd" clip-rule="evenodd" d="M124.313 233.702C120.122 233.571 116.482 233.33 112.209 233.239C104.331 233.071 95.1835 233.489 88.7871 232.944C82.0098 232.367 76.0187 231.287 78.5976 230.374C81.2865 229.422 93.6714 229.424 100.523 228.791C105.787 228.304 108.172 227.529 113.892 227.113C121.058 226.592 129.621 225.705 137.335 226.114C145.473 226.546 142.946 227.986 147.184 228.88C150.176 229.512 156.172 229.892 158.408 230.562C161.017 231.344 164.377 232.261 160.931 233.001C157.476 233.742 148.98 234.017 141.655 234.158C135.682 234.272 130.152 233.884 124.313 233.702Z" fill="#2B2B2B"/>
<circle cx="-18" cy="145" r="145" transform="rotate(-180 -18 145)" fill="#81AED0"/>
<mask id="mask0_129_469" style="mask-type:alpha" maskUnits="userSpaceOnUse" x="-163" y="0" width="290" height="290">
<circle cx="-18" cy="145" r="145" transform="rotate(-180 -18 145)" fill="#DFB8BC"/>
</mask>
<g mask="url(#mask0_129_469)">
<path fill-rule="evenodd" clip-rule="evenodd" d="M103.819 169.303C108.01 169.434 111.649 169.675 115.922 169.766C123.801 169.934 132.948 169.515 139.344 170.06C146.122 170.638 152.113 171.718 149.534 172.631C146.845 173.583 134.46 173.581 127.608 174.214C122.344 174.7 119.959 175.476 114.24 175.892C107.074 176.413 98.5104 177.3 90.796 176.891C82.6586 176.459 85.1853 175.019 80.9475 174.124C77.9551 173.493 71.9595 173.113 69.7231 172.442C67.1148 171.661 63.7548 170.744 67.2 170.004C70.6555 169.263 79.1515 168.987 86.4763 168.847C92.449 168.733 97.9798 169.12 103.819 169.303Z" fill="#EEF1F3"/>
<path fill-rule="evenodd" clip-rule="evenodd" d="M107.143 205.339C100.442 205.256 94.0013 205.186 87.8453 204.874C80.1701 204.485 70.9344 204.189 67.3814 203.323C63.745 202.437 66.8376 201.393 69.7914 200.474C72.6537 199.584 77.0479 198.756 83.836 198.206C90.5824 197.66 98.9502 197.309 107.143 197.448C114.843 197.579 119.214 198.465 125.895 198.919C133.587 199.442 145.503 199.371 149.129 200.303C152.722 201.226 145.908 202.229 142.381 203.156C139.209 203.989 136.768 204.958 129.755 205.393C122.969 205.813 114.826 205.434 107.143 205.339Z" fill="#EEF1F3"/>
<path fill-rule="evenodd" clip-rule="evenodd" d="M124.313 233.702C120.122 233.571 116.482 233.33 112.209 233.239C104.331 233.071 95.1835 233.489 88.7871 232.944C82.0098 232.367 76.0187 231.287 78.5976 230.374C81.2865 229.422 93.6714 229.424 100.523 228.791C105.787 228.304 108.172 227.529 113.892 227.113C121.058 226.592 129.621 225.705 137.335 226.114C145.473 226.546 142.946 227.986 147.184 228.88C150.176 229.512 156.172 229.892 158.408 230.562C161.017 231.344 164.377 232.261 160.931 233.001C157.476 233.742 148.98 234.017 141.655 234.158C135.682 234.272 130.152 233.884 124.313 233.702Z" fill="#EEF1F3"/>
</g>
</svg>
