<svg width="52" height="56" viewBox="0 0 52 56" fill="none" xmlns="http://www.w3.org/2000/svg">
<rect width="14" height="56" fill="#81AED0"/>
<path d="M48.6667 19.6667H33.6667C31.8257 19.6667 30.3333 21.159 30.3333 23V31.3333H29.5C28.5795 31.3333 27.8333 30.5871 27.8333 29.6667V25.5C27.8333 23.659 26.3409 22.1667 24.5 22.1667H23.6667V6.33333C23.6667 4.49238 22.1743 3 20.3333 3H5.33333C3.49238 3 2 4.49238 2 6.33333V33C2 34.8409 3.49238 36.3333 5.33333 36.3333H20.3333C22.1743 36.3333 23.6667 34.8409 23.6667 33V23.8333H24.5C25.4205 23.8333 26.1667 24.5795 26.1667 25.5V29.6667C26.1667 31.5076 27.659 33 29.5 33H30.3333V49.6667C30.3333 51.5076 31.8257 53 33.6667 53H48.6667C50.5076 53 52 51.5076 52 49.6667V23C52 21.159 50.5076 19.6667 48.6667 19.6667ZM5.33333 4.66667H20.3333C21.2538 4.66667 22 5.41286 22 6.33333V9.66667H3.66667V6.33333C3.66667 5.41286 4.41286 4.66667 5.33333 4.66667ZM20.3333 34.6667H5.33333C4.41286 34.6667 3.66667 33.9205 3.66667 33V29.6667H22V33C22 33.9205 21.2538 34.6667 20.3333 34.6667ZM22 28H3.66667V11.3333H22V22.1667H18.5133C18.1615 21.1714 17.2223 20.5044 16.1667 20.5H9.5C8.11929 20.5 7 21.6193 7 23C7 24.3807 8.11929 25.5 9.5 25.5H16.1667C17.2223 25.4956 18.1615 24.8286 18.5133 23.8333H22V28ZM17 23C17 23.4602 16.6269 23.8333 16.1667 23.8333H9.5C9.03976 23.8333 8.66667 23.4602 8.66667 23C8.66667 22.5398 9.03976 22.1667 9.5 22.1667H16.1667C16.6269 22.1667 17 22.5398 17 23ZM33.6667 21.3333H48.6667C49.5871 21.3333 50.3333 22.0795 50.3333 23V26.3333H32V23C32 22.0795 32.7462 21.3333 33.6667 21.3333ZM35.5775 34.4225C35.9029 34.7478 36.4304 34.7478 36.7558 34.4225L38.4225 32.7558C38.5003 32.6782 38.5617 32.5859 38.6033 32.4842C38.6876 32.2803 38.6876 32.0514 38.6033 31.8475C38.5617 31.7458 38.5003 31.6534 38.4225 31.5758L36.7558 29.9092C36.4289 29.5934 35.9091 29.5979 35.5877 29.9193C35.2662 30.2408 35.2617 30.7605 35.5775 31.0875L35.8217 31.3317H32V28H50.3333V44.6667H32V33H35.8217L35.5775 33.2442C35.2522 33.5696 35.2522 34.0971 35.5775 34.4225ZM48.6667 51.3333H33.6667C32.7462 51.3333 32 50.5871 32 49.6667V46.3333H50.3333V49.6667C50.3333 50.5871 49.5871 51.3333 48.6667 51.3333Z" fill="#2B2B2B"/>
<path d="M13.6667 31.3333H12C11.5398 31.3333 11.1667 31.7064 11.1667 32.1667C11.1667 32.6269 11.5398 33 12 33H13.6667C14.1269 33 14.5 32.6269 14.5 32.1667C14.5 31.7064 14.1269 31.3333 13.6667 31.3333Z" fill="#2B2B2B"/>
<path d="M15.3333 8.00001H16.1667C16.6269 8.00001 17 7.62691 17 7.16668C17 6.70644 16.6269 6.33334 16.1667 6.33334H15.3333C14.8731 6.33334 14.5 6.70644 14.5 7.16668C14.5 7.62691 14.8731 8.00001 15.3333 8.00001Z" fill="#2B2B2B"/>
<path d="M9.49999 8.00001H12C12.4602 8.00001 12.8333 7.62691 12.8333 7.16668C12.8333 6.70644 12.4602 6.33334 12 6.33334H9.49999C9.03975 6.33334 8.66666 6.70644 8.66666 7.16668C8.66666 7.62691 9.03975 8.00001 9.49999 8.00001Z" fill="#2B2B2B"/>
<path d="M42 48H40.3333C39.8731 48 39.5 48.3731 39.5 48.8333C39.5 49.2936 39.8731 49.6667 40.3333 49.6667H42C42.4602 49.6667 42.8333 49.2936 42.8333 48.8333C42.8333 48.3731 42.4602 48 42 48Z" fill="#2B2B2B"/>
<path d="M43.6667 24.6667H44.5C44.9602 24.6667 45.3333 24.2936 45.3333 23.8333C45.3333 23.3731 44.9602 23 44.5 23H43.6667C43.2064 23 42.8333 23.3731 42.8333 23.8333C42.8333 24.2936 43.2064 24.6667 43.6667 24.6667Z" fill="#2B2B2B"/>
<path d="M37.8333 24.6667H40.3333C40.7936 24.6667 41.1667 24.2936 41.1667 23.8333C41.1667 23.3731 40.7936 23 40.3333 23H37.8333C37.3731 23 37 23.3731 37 23.8333C37 24.2936 37.3731 24.6667 37.8333 24.6667Z" fill="#2B2B2B"/>
</svg>
