<svg width="52" height="56" viewBox="0 0 52 56" fill="none" xmlns="http://www.w3.org/2000/svg">
<rect width="14" height="56" fill="#81AED0"/>
<path d="M9.25807 17.5161C11.7685 17.5161 13.9855 16.2339 15.2887 14.2903H32.6452V12.6774H16.0927C16.3621 11.9194 16.5161 11.1073 16.5161 10.2581C16.5161 6.25565 13.2597 3 9.25807 3C5.25645 3 2 6.25565 2 10.2581C2 14.2605 5.25645 17.5161 9.25807 17.5161ZM9.25807 4.6129C12.371 4.6129 14.9032 7.14597 14.9032 10.2581C14.9032 13.3702 12.371 15.9032 9.25807 15.9032C6.14516 15.9032 3.6129 13.3702 3.6129 10.2581C3.6129 7.14597 6.14516 4.6129 9.25807 4.6129Z" fill="#2B2B2B"/>
<path d="M13.054 8.40888L11.9137 7.26855L7.64516 11.5371L6.60242 10.4944L5.4621 11.6347L7.64516 13.8177L13.054 8.40888Z" fill="#2B2B2B"/>
<path d="M47.1613 3V14.2903H45.5484V6.22581H40.7097V14.2903H39.0968V9.45161H34.2581V15.9032H52V3H47.1613ZM37.4839 14.2903H35.871V11.0645H37.4839V14.2903ZM42.3226 7.83871H43.9355V14.2903H42.3226V7.83871ZM50.3871 14.2903H48.7742V4.6129H50.3871V14.2903Z" fill="#2B2B2B"/>
<path d="M27 25.5806C25.6661 25.5806 24.5807 26.6661 24.5807 28C24.5807 29.3339 25.6661 30.4193 27 30.4193C28.3339 30.4193 29.4194 29.3339 29.4194 28C29.4194 26.6661 28.3339 25.5806 27 25.5806ZM27 28.8064C26.5557 28.8064 26.1936 28.4451 26.1936 28C26.1936 27.5548 26.5557 27.1935 27 27.1935C27.4444 27.1935 27.8065 27.5548 27.8065 28C27.8065 28.4451 27.4444 28.8064 27 28.8064Z" fill="#2B2B2B"/>
<path d="M30.4218 21.1573L29.4194 22.1597V20.7419H24.5807V22.1597L23.5782 21.1573L20.1573 24.579L21.1589 25.5807H19.7419V30.4194H21.1589L20.1573 31.421L23.5782 34.8427L24.5807 33.8411V35.2581H29.4194V33.8403L30.4218 34.8427L33.8436 31.421L32.8411 30.4194H34.2581V25.5807H32.8411L33.8427 24.579L30.4218 21.1573ZM32.6452 28.8065H31.0177L30.4113 30.2702L31.5621 31.421L30.421 32.5621L29.2702 31.4105L27.8065 32.0177V33.6452H26.1936V32.0177L24.7298 31.4105L23.5782 32.5621L22.4379 31.421L23.5895 30.2686L22.9831 28.8065H21.3548V27.1936H22.9823L23.5887 25.7298L22.4379 24.579L23.5782 23.4379L24.729 24.5895L26.1936 23.9823V22.3548H27.8065V23.9823L29.2702 24.5895L30.421 23.4379L31.5621 24.579L30.4113 25.7298L31.0177 27.1936H32.6452V28.8065Z" fill="#2B2B2B"/>
<path d="M42.3226 26.3871C42.3226 26.8322 41.9605 27.1935 41.5161 27.1935H35.871V28.8064H41.5161C42.85 28.8064 43.9355 27.721 43.9355 26.3871V17.5161H42.3226V26.3871Z" fill="#2B2B2B"/>
<path d="M46.6315 38.4839H46.0774C43.1177 38.4839 40.7097 40.892 40.7097 43.8524C40.7097 45.2855 41.2678 46.6331 42.2823 47.6484L43.9355 49.3016V50.5807C43.9355 51.9145 45.021 53 46.3548 53C47.6887 53 48.7742 51.9145 48.7742 50.5807V49.3016L50.4282 47.6484C51.4419 46.6331 52 45.2863 52 43.8524C52 40.892 49.5919 38.4839 46.6315 38.4839ZM46.3548 51.3871C45.9105 51.3871 45.5484 51.0258 45.5484 50.5807V49.7742H47.1613V50.5807C47.1613 51.0258 46.7992 51.3871 46.3548 51.3871ZM49.2871 46.5081L47.6339 48.1613H47.1613V44.9355H48.7742V43.3226H43.9355V44.9355H45.5484V48.1613H45.0758L43.4226 46.5081C42.7129 45.7984 42.3226 44.8549 42.3226 43.8524C42.3226 41.7815 44.0073 40.0968 46.0782 40.0968H46.6323C48.7024 40.0968 50.3871 41.7815 50.3871 43.8524C50.3871 44.8549 49.9968 45.7984 49.2871 46.5081Z" fill="#2B2B2B"/>
<path d="M45.5484 33.6451H47.1613V36.8709H45.5484V33.6451Z" fill="#2B2B2B"/>
<path d="M41.6133 34.7394L43.1033 34.1218L44.3388 37.1025L42.8488 37.7201L41.6133 34.7394Z" fill="#2B2B2B"/>
<path d="M48.4076 37.1229L49.6431 34.1422L51.1331 34.7598L49.8976 37.7405L48.4076 37.1229Z" fill="#2B2B2B"/>
<path d="M8.45161 47.3548V46.5484H11.6774C12.5669 46.5484 13.2903 45.825 13.2903 44.9355V32.0323C13.2903 31.1427 12.5669 30.4193 11.6774 30.4193H8.45161V29.6129C8.45161 29.1677 8.81371 28.8064 9.25806 28.8064H18.129V27.1935H9.25806C7.92419 27.1935 6.83871 28.279 6.83871 29.6129V30.4193H3.6129C2.72339 30.4193 2 31.1427 2 32.0323V44.9355C2 45.825 2.72339 46.5484 3.6129 46.5484H6.83871V47.3548C6.83871 48.6887 7.92419 49.7742 9.25806 49.7742H40.7097V48.1613H9.25806C8.81371 48.1613 8.45161 47.8 8.45161 47.3548ZM3.6129 32.0323H11.6774L11.6782 44.9355H3.6129V32.0323Z" fill="#2B2B2B"/>
<path d="M5.2258 33.6451H10.0645V35.258H5.2258V33.6451Z" fill="#2B2B2B"/>
<path d="M5.2258 36.871H10.0645V38.4839H5.2258V36.871Z" fill="#2B2B2B"/>
<path d="M5.2258 40.0968H10.0645V41.7097H5.2258V40.0968Z" fill="#2B2B2B"/>
</svg>
