<svg width="52" height="56" viewBox="0 0 52 56" fill="none" xmlns="http://www.w3.org/2000/svg">
<rect width="14" height="56" fill="#D08187"/>
<path d="M46.3125 17.5V35H32.0775L34.8806 27.4488L36.5056 23.0738C36.5493 22.954 36.5682 22.8255 36.5612 22.6971C36.5542 22.5686 36.5214 22.4434 36.465 22.33C36.4081 22.2181 36.3292 22.121 36.2337 22.0454C36.1383 21.9698 36.0286 21.9176 35.9125 21.8925L31.85 21.0175C31.6556 20.9743 31.4533 21.0091 31.2812 21.1155C31.109 21.2219 30.979 21.3925 30.9156 21.595L30.4037 23.2663L29.6156 22.8463C29.4771 22.7714 29.3215 22.7408 29.1673 22.7581C29.0131 22.7754 28.8668 22.8398 28.7455 22.9437C28.6242 23.0477 28.533 23.1868 28.4828 23.3448C28.4325 23.5027 28.4253 23.6728 28.4619 23.835L29.2094 27.0638L28.4131 29.2162C28.3449 27.5966 27.8606 26.0291 27.0143 24.6882C26.168 23.3473 24.9927 22.2856 23.6194 21.6213L21.125 20.4312V18.1475C22.1783 17.3527 22.9536 16.2004 23.3269 14.875H23.5625C24.209 14.875 24.829 14.5984 25.2861 14.1062C25.7432 13.6139 26 12.9462 26 12.25C26 11.5538 25.7432 10.8861 25.2861 10.3938C24.829 9.90156 24.209 9.625 23.5625 9.625V7.875C23.5625 6.25055 22.9633 4.69263 21.8967 3.54397C20.8301 2.39531 19.3834 1.75 17.875 1.75C16.3666 1.75 14.9199 2.39531 13.8533 3.54397C12.7867 4.69263 12.1875 6.25055 12.1875 7.875V9.625C11.541 9.625 10.921 9.90156 10.4639 10.3938C10.0068 10.8861 9.75 11.5538 9.75 12.25C9.75 12.9462 10.0068 13.6139 10.4639 14.1062C10.921 14.5984 11.541 14.875 12.1875 14.875H12.4231C12.7964 16.2004 13.5717 17.3527 14.625 18.1475V20.4312L12.1306 21.6213C10.6961 22.3108 9.47773 23.433 8.62271 24.8522C7.76769 26.2715 7.31262 27.927 7.3125 29.6187V35H5.6875V13.125C5.68943 12.4294 5.94686 11.763 6.40356 11.2711C6.86026 10.7793 7.47913 10.5021 8.125 10.5H8.9375V8.75H8.125C7.04756 8.75 6.01425 9.21094 5.25238 10.0314C4.49051 10.8519 4.0625 11.9647 4.0625 13.125V39.375C4.0625 40.5353 4.49051 41.6481 5.25238 42.4686C6.01425 43.2891 7.04756 43.75 8.125 43.75H19.3944L18.785 49H17.875C17.2285 49 16.6085 49.2766 16.1514 49.7688C15.6943 50.2611 15.4375 50.9288 15.4375 51.625C15.4375 52.3212 15.6943 52.9889 16.1514 53.4812C16.6085 53.9734 17.2285 54.25 17.875 54.25H34.125C34.7715 54.25 35.3915 53.9734 35.8486 53.4812C36.3057 52.9889 36.5625 52.3212 36.5625 51.625C36.5625 50.9288 36.3057 50.2611 35.8486 49.7688C35.3915 49.2766 34.7715 49 34.125 49H33.215L32.6056 43.75H43.875C44.9524 43.75 45.9858 43.2891 46.7476 42.4686C47.5095 41.6481 47.9375 40.5353 47.9375 39.375V17.5H46.3125ZM23.5625 11.375C23.778 11.375 23.9847 11.4672 24.137 11.6313C24.2894 11.7954 24.375 12.0179 24.375 12.25C24.375 12.4821 24.2894 12.7046 24.137 12.8687C23.9847 13.0328 23.778 13.125 23.5625 13.125V11.375ZM12.1875 13.125C11.972 13.125 11.7653 13.0328 11.613 12.8687C11.4606 12.7046 11.375 12.4821 11.375 12.25C11.375 12.0179 11.4606 11.7954 11.613 11.6313C11.7653 11.4672 11.972 11.375 12.1875 11.375V13.125ZM30.5094 25.2787C30.6134 25.3343 30.7272 25.3653 30.8433 25.3699C30.9593 25.3745 31.0749 25.3525 31.1825 25.3053C31.29 25.2582 31.387 25.187 31.4671 25.0964C31.5471 25.0058 31.6084 24.898 31.6469 24.78L32.2319 22.8813L34.6287 23.3975L33.5725 26.25H30.6962L30.4688 25.2613L30.5094 25.2787ZM30.615 28H32.9225L30.3225 35H28.015L30.615 28ZM21.775 22.6537L21.4013 24.6663L20.0606 23.5113L20.6944 22.1375L21.775 22.6537ZM13.8125 7.875C13.8125 6.71468 14.2405 5.60188 15.0024 4.78141C15.7642 3.96094 16.7976 3.5 17.875 3.5C18.9524 3.5 19.9858 3.96094 20.7476 4.78141C21.5095 5.60188 21.9375 6.71468 21.9375 7.875V7.93625C21.6682 7.89689 21.3968 7.87643 21.125 7.875C19.8859 7.90344 18.668 8.22611 17.5581 8.82C16.6466 9.31532 15.6455 9.59006 14.625 9.625C14.3524 9.62805 14.0802 9.60166 13.8125 9.54625V7.875ZM13.8125 13.125V11.3138C14.0818 11.3531 14.3532 11.3736 14.625 11.375C15.8641 11.3466 17.082 11.0239 18.1919 10.43C19.1034 9.93468 20.1045 9.65994 21.125 9.625C21.3976 9.62195 21.6698 9.64834 21.9375 9.70375V13.125C21.9375 14.2853 21.5095 15.3981 20.7476 16.2186C19.9858 17.0391 18.9524 17.5 17.875 17.5C16.7976 17.5 15.7642 17.0391 15.0024 16.2186C14.2405 15.3981 13.8125 14.2853 13.8125 13.125ZM19.5 18.9963V20.79L17.875 24.29L16.25 20.79V18.9963C17.3106 19.3346 18.4394 19.3346 19.5 18.9963ZM15.0556 22.1375L15.6894 23.5113L14.3488 24.6663L13.975 22.6537L15.0556 22.1375ZM8.9375 29.6187C8.94026 28.3369 9.2698 27.0805 9.89018 25.9865C10.5106 24.8926 11.398 24.003 12.4556 23.415L13.0163 26.425C13.0442 26.5719 13.1066 26.7085 13.1977 26.8219C13.2888 26.9353 13.4053 27.0216 13.5363 27.0725C13.6247 27.1076 13.7182 27.1254 13.8125 27.125C13.9958 27.1239 14.1733 27.056 14.3163 26.9325L16.4369 25.1038L17.1519 26.6438C17.2201 26.7871 17.3236 26.9074 17.4512 26.9914C17.5788 27.0753 17.7255 27.1198 17.875 27.1198C18.0245 27.1198 18.1712 27.0753 18.2988 26.9914C18.4264 26.9074 18.5299 26.7871 18.5981 26.6438L19.3131 25.1038L21.4338 26.9325C21.5767 27.056 21.7542 27.1239 21.9375 27.125C22.0318 27.1254 22.1253 27.1076 22.2138 27.0725C22.3447 27.0216 22.4612 26.9353 22.5523 26.8219C22.6434 26.7085 22.7058 26.5719 22.7337 26.425L23.2944 23.415C24.352 24.003 25.2394 24.8926 25.8598 25.9865C26.4802 27.0805 26.8097 28.3369 26.8125 29.6187V33.5213L26.26 35H24.375V28.875H22.75V35H13V28.875H11.375V35H8.9375V29.6187ZM34.125 50.75C34.3405 50.75 34.5472 50.8422 34.6995 51.0063C34.8519 51.1704 34.9375 51.3929 34.9375 51.625C34.9375 51.8571 34.8519 52.0796 34.6995 52.2437C34.5472 52.4078 34.3405 52.5 34.125 52.5H17.875C17.6595 52.5 17.4528 52.4078 17.3005 52.2437C17.1481 52.0796 17.0625 51.8571 17.0625 51.625C17.0625 51.3929 17.1481 51.1704 17.3005 51.0063C17.4528 50.8422 17.6595 50.75 17.875 50.75H34.125ZM20.4181 49L21.0275 43.75H30.9725L31.5819 49H20.4181ZM46.3125 39.375C46.3106 40.0706 46.0531 40.737 45.5964 41.2289C45.1397 41.7207 44.5209 41.9979 43.875 42H8.125C7.47913 41.9979 6.86026 41.7207 6.40356 41.2289C5.94686 40.737 5.68943 40.0706 5.6875 39.375V36.75H46.3125V39.375Z" fill="black"/>
<path d="M43.0625 38.5H41.4375V40.25H43.0625V38.5Z" fill="black"/>
<path d="M45.5 1.75H30.875C30.2285 1.75 29.6085 2.02656 29.1514 2.51884C28.6943 3.01113 28.4375 3.67881 28.4375 4.375V13.125C28.4375 13.8212 28.6943 14.4889 29.1514 14.9812C29.6085 15.4734 30.2285 15.75 30.875 15.75H33.3125V18.375C33.3125 18.548 33.3602 18.7172 33.4495 18.861C33.5388 19.0049 33.6656 19.117 33.8141 19.1832C33.9625 19.2494 34.1259 19.2668 34.2835 19.233C34.441 19.1993 34.5858 19.116 34.6994 18.9936L37.7114 15.75H45.5C46.1465 15.75 46.7665 15.4734 47.2236 14.9812C47.6807 14.4889 47.9375 13.8212 47.9375 13.125V4.375C47.9375 3.67881 47.6807 3.01113 47.2236 2.51884C46.7665 2.02656 46.1465 1.75 45.5 1.75ZM46.3125 13.125C46.3125 13.3571 46.2269 13.5796 46.0745 13.7437C45.9222 13.9078 45.7155 14 45.5 14H37.375C37.1595 14 36.9529 14.0923 36.8006 14.2564L34.9375 16.2628V14.875C34.9375 14.6429 34.8519 14.4204 34.6995 14.2563C34.5472 14.0922 34.3405 14 34.125 14H30.875C30.6595 14 30.4528 13.9078 30.3005 13.7437C30.1481 13.5796 30.0625 13.3571 30.0625 13.125V4.375C30.0625 4.14294 30.1481 3.92038 30.3005 3.75628C30.4528 3.59219 30.6595 3.5 30.875 3.5H45.5C45.7155 3.5 45.9222 3.59219 46.0745 3.75628C46.2269 3.92038 46.3125 4.14294 46.3125 4.375V13.125Z" fill="black"/>
<path d="M43.875 6.125H32.5V7.875H43.875V6.125Z" fill="black"/>
<path d="M43.875 9.625H32.5V11.375H43.875V9.625Z" fill="black"/>
</svg>
